--------------------------------------------------------------------------------
                                                                                
           SSSSSSSSSSSSSSS       444444444                 AAA                  
         SS:::::::::::::::S     4::::::::4                A:::A                 
        S:::::SSSSSS::::::S    4:::::::::4               A:::::A                
        S:::::S     SSSSSSS   4::::44::::4              A:::::::A               
        S:::::S              4::::4 4::::4             A:::::::::A              
        S:::::S             4::::4  4::::4            A:::::A:::::A             
         S::::SSSS         4::::4   4::::4           A:::::A A:::::A            
          SS::::::SSSSS   4::::444444::::444        A:::::A   A:::::A           
            SSS::::::::SS 4::::::::::::::::4       A:::::A     A:::::A          
               SSSSSS::::S4444444444:::::444      A:::::AAAAAAAAA:::::A         
                    S:::::S         4::::4       A:::::::::::::::::::::A        
                    S:::::S         4::::4      A:::::AAAAAAAAAAAAA:::::A       
        SSSSSSS     S:::::S         4::::4     A:::::A             A:::::A      
        S::::::SSSSSS:::::S       44::::::44  A:::::A               A:::::A     
        S:::::::::::::::SS        4::::::::4 A:::::A                 A:::::A    
         SSSSSSSSSSSSSSS          4444444444AAAAAAA                   AAAAAAA   
                                                                                
                                                                                
---------------------------------------------------------------------------------

                    WWE.Superstars.2011.07.21.Webrip.720p-S4A                    

---------------------------------------------------------------------------------

General
Complete name                    : WWE.Superstars.2011.07.21.Webrip.720p-S4A.mp4
Format                           : MPEG-4
Format profile                   : Base Media / Version 2
Codec ID                         : mp42
File size                        : 1.05 GiB
Duration                         : 48mn 3s
Overall bit rate                 : 3 132 Kbps
Encoded date                     : UTC 2011-07-21 03:23:03
Tagged date                      : UTC 2011-07-21 03:23:03

Video
ID                               : 1
Format                           : AVC
Format/Info                      : Advanced Video Codec
Format profile                   : High@L3.1
Format settings, CABAC           : Yes
Format settings, ReFrames        : 1 frame
Format settings, GOP             : M=1, N=60
Codec ID                         : avc1
Codec ID/Info                    : Advanced Video Coding
Duration                         : 48mn 3s
Bit rate                         : 2 974 Kbps
Maximum bit rate                 : 10.6 Mbps
Width                            : 1 280 pixels
Height                           : 720 pixels
Display aspect ratio             : 16:9
Frame rate mode                  : Variable
Frame rate                       : 29.970 fps
Minimum frame rate               : 29.412 fps
Maximum frame rate               : 200.000 fps
Color space                      : YUV
Chroma subsampling               : 4:2:0
Bit depth                        : 8 bits
Scan type                        : Progressive
Bits/(Pixel*Frame)               : 0.108
Stream size                      : 1 023 MiB (95%)
Tagged date                      : UTC 2011-07-21 03:25:24

Audio
ID                               : 2
Format                           : AAC
Format/Info                      : Advanced Audio Codec
Format profile                   : LC
Codec ID                         : 40
Duration                         : 48mn 3s
Bit rate mode                    : Variable
Bit rate                         : 152 Kbps
Maximum bit rate                 : 219 Kbps
Channel(s)                       : 2 channels
Channel positions                : Front: L R
Sampling rate                    : 44.1 KHz
Compression mode                 : Lossy
Stream size                      : 52.2 MiB (5%)
Title                            : IsoMedia File Produced by Google, 5-11-2011
Encoded date                     : UTC 2011-07-21 03:23:59
Tagged date                      : UTC 2011-07-21 03:25:24

Screenshots:
 
http://leetleech.org/images/89570357388342387606.png
 
http://leetleech.org/images/85085070771342005881.png
 
http://leetleech.org/images/82405111746484783424.png

---------------------------------------------------------------------------------